<mxfile host="app.diagrams.net" modified="2023-08-01T06:19:43.755Z" agent="Mozilla/5.0 (Windows NT 10.0; Win64; x64) AppleWebKit/537.36 (KHTML, like Gecko) Chrome/115.0.0.0 Safari/537.36" version="21.6.2" etag="4a3bxJwAF1z5t_nmDrlS" type="github">
  <diagram name="Page-1" id="NaRz_c93vYGcH9ca4qCX">
    <mxGraphModel>
      <root>
        <mxCell id="0" />
        <mxCell id="1" parent="0" />
      </root>
    </mxGraphModel>
  </diagram>
</mxfile>
